<svg width="66" height="66" viewBox="0 0 66 66" fill="none" xmlns="http://www.w3.org/2000/svg">
<mask id="mask0_2_171" style="mask-type:alpha" maskUnits="userSpaceOnUse" x="0" y="0" width="66" height="66">
<rect width="66" height="66" fill="#D9D9D9"/>
</mask>
<g mask="url(#mask0_2_171)">
<path d="M33 59.1946C29.1958 59.1946 25.6208 58.4734 22.275 57.0312C18.9292 55.5889 16.0188 53.6315 13.5437 51.159C11.0687 48.6866 9.10938 45.7791 7.66563 42.4367C6.22187 39.0942 5.5 35.5229 5.5 31.7226C5.5 27.9223 6.22187 24.3509 7.66563 21.0085C9.10938 17.6661 11.0687 14.7586 13.5437 12.2862C16.0188 9.81369 18.9292 7.85631 22.275 6.41403C25.6208 4.97175 29.1958 4.25061 33 4.25061C36.8042 4.25061 40.3792 4.97175 43.725 6.41403C47.0708 7.85631 49.9813 9.81369 52.4563 12.2862C54.9313 14.7586 56.8906 17.6661 58.3344 21.0085C59.7781 24.3509 60.5 27.9223 60.5 31.7226C60.5 35.5229 59.7781 39.0942 58.3344 42.4367C56.8906 45.7791 54.9313 48.6866 52.4563 51.159C49.9813 53.6315 47.0708 55.5889 43.725 57.0312C40.3792 58.4734 36.8042 59.1946 33 59.1946ZM33 46.8322C35.0625 44.7718 36.8958 42.6427 38.5 40.445C39.875 38.5677 41.1354 36.5073 42.2812 34.2638C43.4271 32.0202 44 29.7996 44 27.6018C44 24.5799 42.9229 21.9929 40.7687 19.841C38.6146 17.689 36.025 16.613 33 16.613C29.975 16.613 27.3854 17.689 25.2313 19.841C23.0771 21.9929 22 24.5799 22 27.6018C22 29.7996 22.5729 32.0202 23.7188 34.2638C24.8646 36.5073 26.125 38.5677 27.5 40.445C29.1042 42.6427 30.9375 44.7718 33 46.8322ZM33 31.7226C31.8542 31.7226 30.8802 31.322 30.0781 30.5207C29.276 29.7194 28.875 28.7465 28.875 27.6018C28.875 26.4571 29.276 25.4842 30.0781 24.6829C30.8802 23.8816 31.8542 23.481 33 23.481C34.1458 23.481 35.1198 23.8816 35.9219 24.6829C36.724 25.4842 37.125 26.4571 37.125 27.6018C37.125 28.7465 36.724 29.7194 35.9219 30.5207C35.1198 31.322 34.1458 31.7226 33 31.7226Z" fill="white"/>
</g>
</svg>
