<svg width="66" height="66" viewBox="0 0 66 66" fill="none" xmlns="http://www.w3.org/2000/svg">
<mask id="mask0_2_176" style="mask-type:alpha" maskUnits="userSpaceOnUse" x="0" y="0" width="66" height="66">
<rect width="66" height="66" fill="#D9D9D9"/>
</mask>
<g mask="url(#mask0_2_176)">
<path d="M30.2499 48.0713C24.8874 48.0713 20.3385 46.2055 16.6031 42.4739C12.8676 38.7423 10.9999 34.198 10.9999 28.8409V12.3577C10.9999 10.8468 11.5385 9.55331 12.6156 8.47732C13.6926 7.40134 14.9874 6.86334 16.4999 6.86334H50.8749C53.5333 6.86334 55.802 7.80197 57.6812 9.67922C59.5604 11.5565 60.4999 13.8229 60.4999 16.4785C60.4999 19.1342 59.5604 21.4006 57.6812 23.2779C55.802 25.1551 53.5333 26.0937 50.8749 26.0937H49.4999V28.8409C49.4999 34.198 47.6322 38.7423 43.8968 42.4739C40.1614 46.2055 35.6124 48.0713 30.2499 48.0713ZM16.4999 20.5993H43.9999V12.3577H16.4999V20.5993ZM30.2499 42.5769C34.0541 42.5769 37.2968 41.2377 39.9781 38.5591C42.6593 35.8806 43.9999 32.6412 43.9999 28.8409V26.0937H16.4999V28.8409C16.4999 32.6412 17.8406 35.8806 20.5218 38.5591C23.2031 41.2377 26.4458 42.5769 30.2499 42.5769ZM49.4999 20.5993H50.8749C52.0208 20.5993 52.9947 20.1987 53.7968 19.3974C54.5989 18.5962 54.9999 17.6232 54.9999 16.4785C54.9999 15.3339 54.5989 14.3609 53.7968 13.5596C52.9947 12.7584 52.0208 12.3577 50.8749 12.3577H49.4999V20.5993ZM10.9999 56.3129V50.8185H54.9999V56.3129H10.9999Z" fill="white"/>
</g>
</svg>
