<svg width="302" height="230" viewBox="0 0 302 230" fill="none" xmlns="http://www.w3.org/2000/svg">
<g clip-path="url(#clip0_2_15)">
<ellipse cx="158.5" cy="78" rx="141.5" ry="81" fill="#C66A37" fill-opacity="0.77"/>
<path fill-rule="evenodd" clip-rule="evenodd" d="M69.3514 49.3286C68.5224 49.3943 67.6095 49.5257 66.6719 49.6841C64.7622 50.0125 63.2127 50.65 62.0284 51.6275C60.8392 52.5741 60.094 53.7911 59.7536 55.2323C59.418 56.6966 59.497 58.3039 59.9855 60.0502C60.775 62.8591 62.0531 64.8682 63.8394 66.0505C65.5962 67.2327 67.802 67.5959 70.4864 67.1361C71.7151 66.9236 72.8649 66.6725 73.8716 66.3943C74.8782 66.1161 75.8356 65.7916 76.7781 65.3898L75.7911 61.87L74.2071 62.1443C74.1134 63.0098 73.9258 63.6782 73.6594 64.1766C73.4225 64.6673 73.0574 65.0498 72.554 65.3241C72.0655 65.6216 71.3746 65.8457 70.5061 65.9964C69.3761 66.1895 68.3497 66.0466 67.3776 65.6061C66.44 65.158 65.611 64.3968 64.9053 63.3227C64.1651 62.2564 63.5878 60.9234 63.1289 59.3007C62.6798 57.705 62.5466 56.2677 62.7193 55.07C62.8821 53.8491 63.2868 52.8755 63.9727 52.1723C64.6931 51.4652 65.5814 51.0209 66.6473 50.8355C67.3924 50.708 68.029 50.677 68.5915 50.7659C69.1639 50.878 69.7067 51.1059 70.2051 51.4459C70.7134 51.8091 71.2019 52.3346 71.6263 53.003L73.2103 52.7286L72.2481 49.3132C71.1625 49.2552 70.1805 49.263 69.3514 49.3286Z" fill="white"/>
<path fill-rule="evenodd" clip-rule="evenodd" d="M93.1413 62.8668C94.3454 62.0323 95.1793 60.877 95.658 59.4552C96.1367 58.0295 96.1564 56.3179 95.7567 54.3745C95.3866 52.5586 94.7352 51.0363 93.8272 49.8657C92.9094 48.6679 91.735 47.845 90.3236 47.3389C88.8778 46.8366 87.2494 46.7284 85.3495 46.9679C83.5533 47.192 82.0483 47.7252 80.8491 48.5829C79.655 49.4677 78.8161 50.5998 78.367 52.0177C77.9229 53.4395 77.8933 55.097 78.2683 56.94C78.5792 58.4507 79.0431 59.7295 79.6895 60.7534C80.3113 61.8043 81.0761 62.6002 81.9693 63.1952C82.8674 63.8173 83.8889 64.2152 85.0041 64.4161C86.1095 64.59 87.2938 64.6286 88.5669 64.4664C90.4026 64.2384 91.9027 63.7052 93.1413 62.8668ZM81.1748 53.0841C81.2143 52.1336 81.3821 51.3261 81.6732 50.6345C81.994 49.912 82.4825 49.3518 83.0944 48.9075C83.7063 48.4632 84.4909 48.2082 85.4384 48.0884C86.519 47.9532 87.5504 48.0845 88.4781 48.5211C89.4107 48.9809 90.2052 49.7459 90.9454 50.8895C91.6511 52.0332 92.2235 53.5129 92.5936 55.3289C92.8995 56.8125 92.939 58.1454 92.7762 59.3239C92.6084 60.4752 92.1593 61.3948 91.4636 62.0902C90.7974 62.7779 89.8746 63.1836 88.7002 63.3304C86.8694 63.5623 85.3594 63.0677 84.106 61.8623C82.8872 60.6491 82.0285 58.7636 81.5005 56.2059C81.2785 55.0661 81.165 54.0307 81.1748 53.0841Z" fill="white"/>
<path fill-rule="evenodd" clip-rule="evenodd" d="M98.6879 45.577L98.7767 46.1952C99.285 46.2802 99.66 46.3266 99.8771 46.4116C100.084 46.4695 100.267 46.5854 100.42 46.7284C100.538 46.8482 100.667 47.0452 100.77 47.3002C100.844 47.5823 100.933 47.9879 101.017 48.5829L102.562 59.4552C102.65 60.0734 102.68 60.5409 102.66 60.8538C102.636 61.1436 102.502 61.3909 102.33 61.5879C102.122 61.7618 101.683 61.9588 101.042 62.1443L101.131 62.7625L108.271 62.1404L108.182 61.5223C107.743 61.4836 107.373 61.4373 107.067 61.387C106.756 61.3098 106.504 61.2016 106.317 61.0354C106.129 60.8693 105.962 60.6491 105.853 60.3438C105.749 60.0657 105.656 59.6561 105.582 59.1423L104.881 54.22L108.172 53.9341C108.666 53.8916 109.036 53.9109 109.317 54.0152C109.598 54.1195 109.825 54.3088 110.062 54.5754C110.265 54.8459 110.526 55.267 110.738 55.8195L112.253 55.6882L111.498 50.3795L109.983 50.5109C109.934 51.1136 109.801 51.5695 109.677 51.867C109.554 52.1645 109.352 52.3925 109.11 52.5432C108.863 52.6938 108.478 52.7827 108.014 52.8213L104.723 53.1073L103.751 46.257L108.454 45.8475C108.982 45.8011 109.381 45.8166 109.722 45.8668C110.062 45.917 110.343 46.0213 110.63 46.1759C110.886 46.3382 111.158 46.6009 111.434 46.9138C111.681 47.2577 111.982 47.702 112.322 48.2468L113.867 48.1116L113.324 44.2982L98.6879 45.577Z" fill="white"/>
<path fill-rule="evenodd" clip-rule="evenodd" d="M116.961 44.0586L117.02 44.6807C117.528 44.7811 117.893 44.8391 118.106 44.9318C118.308 44.9975 118.486 45.1173 118.634 45.2679C118.747 45.3916 118.866 45.5925 118.954 45.8475C119.014 46.1295 119.083 46.5429 119.137 47.1379L120.134 58.0489C120.193 58.6709 120.198 59.1384 120.163 59.4513C120.124 59.7411 119.981 59.9807 119.798 60.1739C119.581 60.34 119.132 60.5216 118.486 60.6877L118.54 61.3059L125.705 60.9041L125.651 60.282C125.217 60.2279 124.841 60.1739 124.54 60.112C124.235 60.0232 123.988 59.9073 123.81 59.7373C123.628 59.5673 123.475 59.3432 123.381 59.0341C123.287 58.752 123.218 58.3425 123.169 57.8248L122.72 52.887L126.021 52.7016C126.519 52.6745 126.884 52.7055 127.161 52.8214C127.437 52.9373 127.654 53.1304 127.876 53.4048C128.069 53.6791 128.306 54.1079 128.493 54.6682L130.013 54.5832L129.524 49.2552L128.005 49.3402C127.926 49.9429 127.768 50.395 127.63 50.6886C127.491 50.9823 127.279 51.2025 127.023 51.3454C126.771 51.4884 126.376 51.5618 125.917 51.5889L122.616 51.7743L121.989 44.897L126.712 44.6304C127.24 44.5995 127.639 44.6304 127.98 44.6884C128.32 44.7464 128.592 44.8623 128.873 45.0284C129.12 45.1945 129.376 45.4689 129.638 45.7895C129.87 46.1411 130.141 46.5932 130.457 47.1457L132.011 47.0568L131.661 43.2318L116.961 44.0586Z" fill="white"/>
<path fill-rule="evenodd" clip-rule="evenodd" d="M135.298 43.0889L135.328 43.7109C135.826 43.8268 136.196 43.8964 136.398 43.993C136.601 44.0664 136.773 44.19 136.912 44.3407C137.015 44.4682 137.124 44.673 137.203 44.9318C137.247 45.2139 137.296 45.6273 137.321 46.2261L137.785 57.1602C137.81 57.7823 137.795 58.2498 137.746 58.5627C137.691 58.8486 137.533 59.0882 137.346 59.2736C137.119 59.4359 136.665 59.6021 136.009 59.7489L136.038 60.3709L150.995 59.9846L151.138 55.5452L149.515 55.5877C149.337 56.1634 149.194 56.6077 149.071 56.8975C148.952 57.2105 148.799 57.5002 148.646 57.79C148.459 58.0527 148.271 58.2923 148.044 58.4816C147.822 58.6439 147.526 58.783 147.2 58.8641C146.875 58.953 146.445 58.9877 145.912 59.0032L140.914 59.1346L140.603 51.8246L144.042 51.7357C144.541 51.7241 144.935 51.7627 145.177 51.8864C145.449 51.983 145.685 52.1607 145.858 52.4157C146.07 52.6707 146.248 53.0532 146.406 53.5439L147.926 53.5052L147.718 48.6602L146.199 48.6989C146.055 49.2205 145.907 49.6416 145.75 49.8773C145.597 50.14 145.37 50.3293 145.113 50.4414C144.851 50.5496 144.457 50.6152 143.993 50.6268L140.553 50.7157L140.272 44.0818L145.37 43.9505C145.799 43.9389 146.129 43.9582 146.465 44.0007C146.766 44.0471 147.033 44.1166 147.235 44.2402C147.472 44.3639 147.679 44.5416 147.886 44.7425C148.059 44.9434 148.237 45.1984 148.449 45.5037C148.626 45.8089 148.804 46.1682 148.992 46.5777L150.581 46.5352L150.418 42.7025L135.298 43.0889Z" fill="white"/>
<path fill-rule="evenodd" clip-rule="evenodd" d="M154.933 42.6445L154.928 43.2666C155.426 43.3979 155.792 43.4791 155.984 43.5834C156.181 43.6607 156.349 43.792 156.477 43.9466C156.576 44.0741 156.675 44.2866 156.739 44.5454C156.769 44.8314 156.803 45.2448 156.798 45.8436L156.724 56.7816C156.719 57.4036 156.685 57.8711 156.616 58.1802C156.547 58.4661 156.379 58.6979 156.181 58.8795C155.944 59.0341 155.486 59.1886 154.819 59.3161L154.814 59.9382L169.781 60L170.141 55.5684L168.518 55.5607C168.316 56.1325 168.148 56.5691 168.01 56.855C167.876 57.1641 167.709 57.45 167.541 57.7359C167.339 57.9948 167.141 58.2266 166.904 58.4082C166.672 58.5627 166.371 58.6902 166.041 58.7675C165.71 58.8448 165.281 58.8679 164.748 58.8641L159.759 58.8409L159.808 51.5309L163.253 51.5425C163.751 51.5463 164.146 51.5966 164.378 51.7318C164.644 51.8361 164.871 52.0177 165.039 52.2804C165.236 52.5393 165.399 52.9295 165.528 53.4241L167.052 53.4279L167.087 48.5791L165.562 48.5714C165.394 49.0891 165.227 49.5064 165.059 49.7343C164.891 49.9932 164.659 50.1748 164.393 50.2752C164.126 50.3795 163.726 50.4298 163.267 50.4259L159.823 50.4104L159.868 43.7727L164.965 43.7959C165.399 43.7959 165.725 43.8229 166.056 43.877C166.352 43.9311 166.618 44.0084 166.816 44.1398C167.047 44.2711 167.245 44.4527 167.442 44.6613C167.605 44.87 167.768 45.1289 167.965 45.4418C168.128 45.7548 168.291 46.118 168.454 46.5314L170.043 46.5352L170.067 42.6986L154.933 42.6445Z" fill="white"/>
<path fill-rule="evenodd" clip-rule="evenodd" d="M181.047 56.3759L180.795 59.8455C182.947 60.3825 184.876 60.7032 186.564 60.7766C187.62 60.823 188.587 60.7612 189.49 60.6452C190.364 60.5023 191.143 60.2512 191.795 59.9189C192.451 59.5596 192.984 59.0882 193.393 58.4855C193.769 57.8789 194.02 57.1371 194.084 56.2561C194.139 55.4796 193.961 54.7725 193.571 54.1582C193.216 53.5477 192.658 52.9991 191.933 52.5007C191.207 52.0023 190.156 51.4343 188.834 50.8586C187.709 50.368 186.88 49.9159 186.342 49.5527C185.774 49.1664 185.37 48.7568 185.138 48.3318C184.901 47.9068 184.773 47.4046 184.817 46.8134C184.857 46.2416 185.059 45.7586 185.419 45.3607C185.779 44.9627 186.233 44.6961 186.806 44.5107C187.383 44.3291 188.02 44.2518 188.715 44.2827C189.51 44.3175 190.161 44.4257 190.645 44.6266C191.163 44.8043 191.573 45.1096 191.908 45.5384C192.273 45.9712 192.53 46.5546 192.742 47.3157L194.331 47.3852L194.578 43.9698C193.438 43.6839 192.456 43.4868 191.666 43.398C190.911 43.2859 190.117 43.2241 189.293 43.1893C187.872 43.1275 186.598 43.2511 185.483 43.5911C184.368 43.9041 183.5 44.4141 182.888 45.0864C182.276 45.7625 181.95 46.5507 181.881 47.5089C181.837 48.1541 181.96 48.7568 182.281 49.3171C182.606 49.8773 183.095 50.4182 183.791 50.9166C184.516 51.415 185.473 51.9521 186.697 52.4736C187.951 53.0493 188.873 53.5284 189.51 53.9496C190.112 54.3398 190.546 54.7764 190.778 55.2246C191.05 55.6496 191.138 56.2021 191.094 56.8241C191.025 57.8093 190.64 58.5434 189.91 59.0302C189.214 59.5171 188.232 59.7334 186.978 59.6793C186.056 59.6368 185.301 59.5016 184.753 59.2698C184.176 59.038 183.731 58.7057 183.401 58.2498C183.07 57.7939 182.814 57.2105 182.671 56.4532L181.047 56.3759Z" fill="white"/>
<path fill-rule="evenodd" clip-rule="evenodd" d="M215.703 48.2854C215.792 47.59 215.92 47.107 216.024 46.8018C216.157 46.5236 216.354 46.3073 216.601 46.1952C216.853 46.06 217.297 45.9634 217.904 45.8823L217.983 45.2602L211.227 44.7348L211.148 45.3529C211.785 45.5577 212.17 45.72 212.377 45.89C212.56 46.0329 212.698 46.2532 212.762 46.5198C212.826 46.8095 212.796 47.3041 212.698 48.0498L212.135 52.4891L203.204 51.7975L203.766 47.3582C203.84 46.767 203.889 46.3536 203.993 46.0716C204.097 45.7934 204.22 45.5964 204.368 45.4766C204.487 45.3298 204.664 45.2409 204.906 45.1559C205.113 45.0941 205.459 45.0129 205.962 44.9511L206.041 44.3329L199.251 43.8036L199.172 44.4218C199.651 44.5879 200.001 44.6961 200.188 44.8159C200.376 44.9086 200.524 45.0516 200.633 45.2139C200.716 45.3491 200.791 45.5654 200.82 45.8282C200.82 46.1141 200.8 46.5314 200.721 47.1225L199.34 58.0064C199.261 58.6245 199.167 59.0882 199.063 59.3934C198.96 59.6716 198.767 59.8918 198.545 60.0579C198.299 60.1932 197.815 60.3129 197.139 60.3902L197.065 61.0084L203.85 61.5339L203.929 60.9157C203.45 60.7727 203.1 60.6452 202.883 60.5254C202.7 60.4057 202.513 60.2859 202.434 60.1275C202.355 59.9652 202.281 59.7488 202.281 59.49C202.246 59.2273 202.301 58.8138 202.375 58.2459L203.046 52.9566L211.977 53.6482L211.306 58.9375C211.217 59.6329 211.124 60.1236 210.985 60.425C210.852 60.6993 210.66 60.8964 210.408 61.0316C210.161 61.1436 209.712 61.2634 209.11 61.3214L209.031 61.9395L215.787 62.465L215.866 61.8468C215.446 61.7348 215.16 61.6382 214.973 61.5454C214.785 61.4527 214.627 61.36 214.543 61.2518C214.459 61.1398 214.371 61.0277 214.326 60.8693C214.247 60.707 214.237 60.5254 214.237 60.2627C214.232 60.027 214.247 59.6638 214.311 59.1732L215.703 48.2854Z" fill="white"/>
<path fill-rule="evenodd" clip-rule="evenodd" d="M232.777 63.6395C234.247 63.1334 235.496 62.2332 236.507 60.9929C237.519 59.7488 238.21 58.1261 238.59 56.1788C238.945 54.3591 238.925 52.7557 238.516 51.4227C238.116 50.0627 237.317 48.9963 236.172 48.1773C234.993 47.3543 233.483 46.8559 231.583 46.6318C229.782 46.4154 228.148 46.5584 226.668 47.0916C225.187 47.6479 223.944 48.525 222.962 49.7691C221.98 51.0132 221.304 52.5857 220.944 54.4325C220.648 55.9432 220.588 57.2761 220.8 58.4043C220.978 59.5518 221.398 60.4945 222.014 61.2788C222.626 62.0863 223.445 62.7084 224.427 63.1682C225.414 63.6009 226.525 63.9177 227.803 64.0723C229.633 64.2848 231.272 64.1418 232.777 63.6395ZM225.212 51.4536C225.622 50.5573 226.1 49.8309 226.653 49.2398C227.24 48.6254 227.926 48.212 228.681 47.9338C229.441 47.6557 230.285 47.6016 231.237 47.7175C232.318 47.845 233.251 48.2198 233.961 48.8573C234.672 49.5179 235.126 50.4413 235.382 51.7048C235.604 52.9643 235.57 54.5059 235.215 56.3257C234.923 57.8132 234.44 59.092 233.823 60.1738C233.216 61.2286 232.426 62.0013 231.494 62.492C230.591 62.9866 229.555 63.1527 228.375 63.0098C226.544 62.7895 225.296 61.9588 224.58 60.51C223.89 59.065 223.816 57.0598 224.314 54.4982C224.536 53.3661 224.837 52.3538 225.212 51.4536Z" fill="white"/>
<path fill-rule="evenodd" clip-rule="evenodd" d="M247.176 58.9839C247.778 59.1384 248.686 59.2891 249.885 59.4861C250.922 59.66 251.913 59.745 252.94 59.7025C253.927 59.6793 254.825 59.4861 255.654 59.1732C256.453 58.8564 257.154 58.3889 257.726 57.7668C258.269 57.1409 258.674 56.3875 258.911 55.5259C259.315 54.0307 259.039 52.7905 258.008 51.8516C257.011 50.9166 255.264 50.2289 252.802 49.8232L244.965 48.5211L244.803 49.1316C245.252 49.3364 245.587 49.4716 245.755 49.6068C245.933 49.715 246.056 49.8696 246.145 50.0434C246.209 50.1864 246.248 50.4066 246.248 50.6693C246.209 50.9514 246.13 51.3648 245.972 51.9482L243.075 62.6505C242.913 63.257 242.755 63.7091 242.607 64.0027C242.469 64.2693 242.242 64.4741 242 64.6171C241.733 64.7291 241.24 64.8102 240.554 64.8257L240.391 65.4361L247.324 66.5836L247.492 65.9771C246.998 65.7916 246.663 65.6564 246.431 65.5096C246.234 65.3705 246.076 65.2121 245.957 65.0073C245.868 64.8334 245.834 64.59 245.849 64.2732C245.864 63.9834 245.928 63.5971 246.066 63.0909L247.176 58.9839ZM249.481 50.4646C250.004 50.5225 250.788 50.6268 251.825 50.8007C252.535 50.9166 253.162 51.102 253.715 51.3261C254.267 51.5232 254.731 51.813 255.072 52.1877C255.417 52.5355 255.634 52.9682 255.767 53.4936C255.866 54.0152 255.836 54.618 255.644 55.3289C255.392 56.2677 254.998 56.9671 254.42 57.4809C253.848 57.9677 253.157 58.2768 252.318 58.3773C251.474 58.5009 250.468 58.4661 249.268 58.2691L247.457 57.9677L249.481 50.4646Z" fill="white"/>
<path fill-rule="evenodd" clip-rule="evenodd" d="M106.322 99.328L115.411 98.7407L113.043 76.3316L103.282 76.9652L99.4972 86.2148L94.1283 77.5564L83.3806 78.2518L85.7492 100.657L92.3172 100.232L90.9701 87.4434L99.8327 100.568L104.96 86.4389L106.322 99.328Z" fill="white"/>
<path fill-rule="evenodd" clip-rule="evenodd" d="M120.889 78.3793C118.639 80.373 117.602 83.3982 117.785 87.3507C117.913 90.0977 118.51 92.4005 119.576 94.1546C120.647 95.9125 122.241 97.1682 124.313 97.9796C126.381 98.7446 129.051 99.1 132.253 99.0111C135.579 98.9184 138.328 98.4046 140.386 97.4773C142.503 96.55 143.978 95.2055 144.945 93.3896C145.848 91.5775 146.238 89.298 146.11 86.5509C145.986 83.8966 145.394 81.6943 144.392 79.9866C143.391 78.2789 141.851 77.0155 139.655 76.1616C137.523 75.3541 134.73 74.9948 131.222 75.0952C126.544 75.2266 123.075 76.3393 120.889 78.3793ZM127.195 81.4355C127.807 80.0175 129.317 79.2989 131.597 79.2371C133.201 79.1907 134.449 79.5423 135.224 80.2918C135.999 81.0414 136.532 81.9455 136.764 83.0002C136.995 84.0086 137.119 85.3571 137.193 86.8986C137.267 88.4905 137.203 89.8427 137.069 90.9091C136.936 91.9755 136.423 92.9066 135.653 93.6523C134.883 94.398 133.734 94.8152 132.071 94.8616C130.531 94.9041 129.406 94.5486 128.567 93.7527C127.792 93.0032 127.259 92.0991 127.028 91.1409C126.796 90.1325 126.608 88.788 126.475 87.0996C126.361 84.7427 126.583 82.8573 127.195 81.4355Z" fill="white"/>
<path fill-rule="evenodd" clip-rule="evenodd" d="M172.999 92.6593C172.999 92.6593 172.629 92.8023 171.948 93.0921C171.207 93.3818 170.161 93.6677 168.868 93.9073C167.575 94.1468 165.972 94.2434 164.121 94.2396C162.764 94.1893 161.659 93.9498 160.795 93.463C159.932 92.98 159.32 92.3502 158.89 91.5775C158.461 90.7584 158.155 89.8891 158.032 89.0198C157.913 88.1041 157.849 87.0416 157.854 85.8361C157.859 83.715 158.293 82.0266 159.216 80.8212C160.08 79.5655 161.871 78.9434 164.58 78.9434C166.677 78.9473 168.459 79.1907 169.939 79.5771C171.42 80.0098 172.466 80.3498 173.018 80.5932L171.424 75.7173C170.872 75.5705 169.821 75.3773 168.345 75.1841C166.87 74.9407 164.955 74.8402 162.616 74.8402C160.154 74.933 158.057 75.2227 156.27 75.7984C154.543 76.3277 153.186 77.0502 152.076 78.0123C151.03 78.9743 150.284 80.0832 149.791 81.3389C149.298 82.6409 148.987 84.1361 148.858 85.8246C148.853 88.6257 149.283 90.94 150.201 92.7714C151.059 94.6066 152.599 96.0091 154.75 96.975C156.907 97.9409 159.863 98.4277 163.559 98.4316C165.903 98.3852 167.748 98.2423 169.229 97.9564C170.709 97.7168 171.696 97.4773 172.189 97.3305L172.999 92.6593Z" fill="white"/>
<path fill-rule="evenodd" clip-rule="evenodd" d="M192.619 98.4007L201.674 98.6673L202.764 76.2002L193.709 75.9336L193.28 84.8007L185.769 84.5805L186.199 75.7095L177.149 75.4391L176.058 97.9061L185.108 98.1766L185.582 88.39L193.097 88.6141L192.619 98.4007Z" fill="white"/>
<path fill-rule="evenodd" clip-rule="evenodd" d="M222.424 96.5693L223.677 99.9886L233.26 100.599L224.714 77.4984L216.542 76.9807L203.529 98.7098L210.038 99.127L211.982 95.9086L222.424 96.5693ZM214.292 92.1339L218.323 85.4691L220.929 92.5589L214.292 92.1339Z" fill="white"/>
<path fill-rule="evenodd" clip-rule="evenodd" d="M175.352 9.75726C175.352 9.75726 176.892 9.93498 179.576 10.2363C180.909 10.36 182.557 10.5995 184.452 10.8739C185.399 11.0129 186.401 11.1636 187.462 11.3143C188.508 11.4998 189.604 11.6968 190.749 11.9016C193.053 12.2763 195.506 12.8173 198.096 13.3775C199.404 13.6325 200.707 13.9918 202.059 14.3163C203.396 14.6718 204.792 14.9616 206.159 15.3711C207.541 15.7652 208.933 16.167 210.354 16.5688C211.765 16.9823 213.162 17.4691 214.593 17.9173C215.303 18.1529 216.014 18.3848 216.724 18.6127C217.425 18.8639 218.131 19.1189 218.841 19.3739C220.248 19.9032 221.679 20.3823 223.061 20.9464C224.447 21.5104 225.834 22.0668 227.216 22.627C228.587 23.1911 229.915 23.8248 231.247 24.4159C231.918 24.7095 232.579 25.0109 233.236 25.3045C233.877 25.6252 234.519 25.9382 235.155 26.2511C236.419 26.8848 237.692 27.4875 238.906 28.125C241.294 29.4425 243.653 30.6479 245.745 31.95C246.806 32.5875 247.837 33.2057 248.839 33.8045C249.806 34.4304 250.739 35.037 251.632 35.6204C253.448 36.7679 255.012 37.9038 256.409 38.9045C257.11 39.4029 257.766 39.8627 258.373 40.2993C258.95 40.7514 259.483 41.1686 259.962 41.5434C261.891 43.0425 262.992 43.8925 262.992 43.8925C262.992 43.8925 261.847 43.0695 259.853 41.6284C259.36 41.2729 258.802 40.8711 258.205 40.4384C257.578 40.0289 256.902 39.5768 256.182 39.1016C254.741 38.1473 253.132 37.0538 251.267 35.9682C250.354 35.4157 249.392 34.84 248.405 34.2373C247.383 33.6693 246.327 33.0898 245.237 32.487C243.1 31.2584 240.697 30.1225 238.269 28.8861C237.04 28.2911 235.752 27.7348 234.469 27.1359C233.823 26.8461 233.177 26.5564 232.525 26.2589C231.859 25.9845 231.193 25.7064 230.522 25.432C229.165 24.8873 227.827 24.3039 226.446 23.7823C225.059 23.2761 223.667 22.7623 222.271 22.2484C220.884 21.7268 219.439 21.2941 218.037 20.8188C217.326 20.5832 216.621 20.3552 215.92 20.1273C215.205 19.9148 214.489 19.7061 213.783 19.4975C212.357 19.0957 210.961 18.6591 209.554 18.292C208.148 17.9366 206.747 17.585 205.38 17.2373C204.018 16.8664 202.631 16.6191 201.304 16.3177C199.961 16.0357 198.664 15.7227 197.376 15.5063C194.805 15.0388 192.382 14.5713 190.107 14.27C188.982 14.1038 187.896 13.9416 186.865 13.7909C185.834 13.6711 184.857 13.5591 183.934 13.4548C182.103 13.2384 180.504 13.0529 179.137 12.9602C176.443 12.7361 174.898 12.6086 174.898 12.6086C173.892 12.5275 173.157 11.8204 173.26 11.0284C173.369 10.2402 174.272 9.66067 175.283 9.7418C175.308 9.75726 175.338 9.75726 175.352 9.75726Z" fill="white"/>
<path fill-rule="evenodd" clip-rule="evenodd" d="M55.1742 44.7387C55.1742 44.7387 56.2648 43.8848 58.1794 42.3896C58.6581 42.0148 59.191 41.6014 59.7733 41.1571C60.3704 40.7243 61.0267 40.2568 61.7175 39.7623C63.1091 38.7616 64.6635 37.6218 66.4696 36.4782C67.3529 35.8948 68.2806 35.2843 69.2429 34.6584C70.2347 34.0557 71.2611 33.4414 72.3073 32.8039C74.3897 31.498 76.7287 30.2809 79.0973 28.9596C80.2965 28.3143 81.5548 27.7116 82.8082 27.0702C83.4398 26.7496 84.0764 26.4366 84.713 26.1121C85.3643 25.8184 86.0206 25.5093 86.677 25.208C88.0044 24.6091 89.317 23.9793 90.674 23.3998C92.0409 22.8396 93.4127 22.2677 94.7846 21.6959C96.1515 21.1125 97.5776 20.6296 98.9691 20.0964C99.6699 19.8337 100.366 19.5709 101.061 19.3121C101.772 19.0764 102.478 18.833 103.178 18.5973C104.595 18.1337 105.976 17.6391 107.373 17.2141C108.774 16.8007 110.166 16.3873 111.528 15.9777C112.88 15.5489 114.267 15.2359 115.594 14.8766C116.931 14.5327 118.229 14.1618 119.522 13.8914C122.098 13.308 124.526 12.7323 126.81 12.3305C127.945 12.1102 129.036 11.9055 130.072 11.7046C131.118 11.5423 132.11 11.3839 133.048 11.2332C134.913 10.9357 136.541 10.673 137.894 10.5262C140.598 10.1862 142.137 9.99297 142.137 9.99297C143.144 9.86547 144.082 10.3948 144.24 11.183C144.407 11.9711 143.721 12.713 142.715 12.8366C142.7 12.8366 142.68 12.8366 142.656 12.8443L142.577 12.8521C142.577 12.8521 141.062 12.9989 138.412 13.2462C137.079 13.3543 135.485 13.5668 133.645 13.8064C132.727 13.9262 131.75 14.0498 130.719 14.1812C129.697 14.3473 128.621 14.5211 127.496 14.7027C125.246 15.0311 122.843 15.5257 120.287 16.0202C119.004 16.2482 117.721 16.5805 116.388 16.8741C115.066 17.1948 113.694 17.4575 112.342 17.84C110.98 18.1955 109.598 18.5625 108.197 18.9373C106.805 19.3121 105.419 19.7602 104.007 20.1775C103.307 20.39 102.596 20.6064 101.89 20.8189C101.19 21.0584 100.494 21.2941 99.7932 21.5337C98.3967 22.0166 96.9657 22.4532 95.584 22.9864C94.2023 23.5118 92.8206 24.0373 91.4389 24.555C90.072 25.0882 88.7446 25.6755 87.4073 26.228C86.7411 26.5023 86.0799 26.7882 85.4186 27.0625C84.7722 27.3639 84.1257 27.6575 83.4941 27.9511C82.2259 28.5539 80.9429 29.1141 79.724 29.7207C77.311 30.9609 74.9325 32.1046 72.8057 33.3409C71.7299 33.9437 70.6838 34.5309 69.6672 35.0989C68.6853 35.69 67.7329 36.2773 66.82 36.8298C64.9645 37.9232 63.3706 39.0089 61.9347 39.9593C61.2191 40.4346 60.548 40.8789 59.9263 41.2962C59.3292 41.725 58.7814 42.1191 58.283 42.4823C56.3042 43.9157 55.1742 44.7387 55.1742 44.7387Z" fill="white"/>
<path fill-rule="evenodd" clip-rule="evenodd" d="M159.088 11.4225L150.22 4.47955C148.385 6.11001 147.264 8.24273 147.264 10.588C147.264 15.6996 152.559 19.8452 159.088 19.8452C165.616 19.8452 170.906 15.6996 170.906 10.588C170.906 8.24273 169.786 6.11001 167.95 4.47955L159.088 11.4225Z" fill="white"/>
<path fill-rule="evenodd" clip-rule="evenodd" d="M174.721 137.52C174.721 137.52 176.265 137.396 178.965 137.172C180.331 137.087 181.93 136.894 183.761 136.685C184.684 136.581 185.661 136.465 186.692 136.345C187.724 136.195 188.804 136.032 189.934 135.862C192.204 135.561 194.627 135.098 197.203 134.626C198.496 134.414 199.794 134.101 201.131 133.819C202.458 133.517 203.845 133.266 205.207 132.895C206.579 132.551 207.975 132.2 209.382 131.84C210.793 131.477 212.19 131.037 213.616 130.635C214.326 130.426 215.037 130.222 215.752 130.009C216.453 129.781 217.159 129.549 217.869 129.317C219.276 128.838 220.717 128.41 222.108 127.884C223.505 127.37 224.901 126.856 226.283 126.35C227.665 125.829 229.007 125.245 230.354 124.7C231.025 124.422 231.696 124.148 232.362 123.874C233.014 123.58 233.655 123.286 234.307 122.997C235.585 122.398 236.878 121.845 238.101 121.246C240.529 120.01 242.932 118.878 245.074 117.645C246.16 117.043 247.216 116.463 248.237 115.895C249.224 115.296 250.186 114.717 251.104 114.164C252.969 113.079 254.578 111.989 256.019 111.035C256.739 110.56 257.415 110.104 258.042 109.698C258.639 109.269 259.192 108.867 259.69 108.508C261.684 107.067 262.829 106.244 262.829 106.244C262.829 106.244 261.728 107.098 259.799 108.597C259.32 108.972 258.787 109.389 258.205 109.837C257.598 110.27 256.942 110.737 256.246 111.232C254.845 112.233 253.285 113.368 251.469 114.516C250.571 115.099 249.639 115.71 248.676 116.336C247.67 116.931 246.643 117.553 245.587 118.186C243.49 119.492 241.131 120.694 238.743 122.011C237.529 122.653 236.256 123.252 234.993 123.885C234.356 124.198 233.719 124.515 233.073 124.832C232.417 125.125 231.755 125.427 231.084 125.724C229.752 126.312 228.429 126.945 227.053 127.509C225.671 128.07 224.284 128.626 222.898 129.19C221.516 129.754 220.08 130.229 218.679 130.759C217.973 131.014 217.267 131.272 216.562 131.524C215.851 131.759 215.14 131.991 214.43 132.219C213.004 132.671 211.602 133.154 210.196 133.571C208.78 133.973 207.378 134.375 206.001 134.769C204.63 135.175 203.238 135.472 201.901 135.824C200.554 136.152 199.246 136.508 197.938 136.767C195.348 137.327 192.895 137.864 190.596 138.243C189.446 138.451 188.35 138.644 187.304 138.834C186.248 138.984 185.241 139.131 184.294 139.27C182.404 139.548 180.751 139.788 179.419 139.912C176.734 140.209 175.199 140.387 175.199 140.387C174.188 140.491 173.26 139.946 173.117 139.162C172.979 138.374 173.67 137.647 174.681 137.532C174.676 137.52 174.701 137.52 174.721 137.52Z" fill="white"/>
<path fill-rule="evenodd" clip-rule="evenodd" d="M54.9916 105.402C54.9916 105.402 56.1217 106.225 58.1152 107.662C58.6136 108.017 59.1565 108.411 59.7585 108.848C60.3802 109.261 61.0464 109.706 61.7669 110.185C63.2029 111.135 64.7968 112.225 66.6522 113.31C67.5602 113.863 68.5175 114.446 69.4995 115.041C70.516 115.609 71.5621 116.197 72.6428 116.799C74.7697 118.036 77.1482 119.179 79.5612 120.42C80.7801 121.03 82.0581 121.59 83.3313 122.189C83.9678 122.483 84.6143 122.78 85.2558 123.078C85.917 123.356 86.5832 123.638 87.2444 123.912C88.5817 124.465 89.9042 125.056 91.276 125.589C92.6577 126.107 94.0345 126.628 95.4211 127.154C96.793 127.687 98.2289 128.128 99.6254 128.607C100.326 128.842 101.017 129.082 101.723 129.321C102.433 129.534 103.139 129.75 103.845 129.963C105.256 130.384 106.643 130.828 108.039 131.207C109.44 131.582 110.827 131.945 112.184 132.3C113.531 132.683 114.913 132.949 116.231 133.266C117.563 133.56 118.841 133.888 120.129 134.12C122.68 134.615 125.083 135.109 127.338 135.438C128.459 135.619 129.539 135.793 130.561 135.959C131.592 136.09 132.569 136.218 133.487 136.334C135.318 136.577 136.917 136.786 138.249 136.894C140.899 137.145 142.409 137.288 142.409 137.288L142.483 137.296C143.494 137.396 144.21 138.111 144.087 138.903C143.963 139.691 143.05 140.259 142.034 140.159C142.019 140.159 141.989 140.151 141.97 140.151C141.97 140.151 140.425 139.954 137.726 139.618C136.374 139.467 134.745 139.208 132.875 138.911C131.947 138.76 130.951 138.602 129.899 138.443C128.873 138.239 127.778 138.034 126.643 137.814C124.353 137.412 121.925 136.836 119.349 136.253C118.056 135.982 116.763 135.615 115.421 135.268C114.094 134.912 112.712 134.595 111.36 134.174C109.993 133.765 108.606 133.351 107.2 132.938C105.804 132.505 104.422 132.014 103.011 131.551C102.305 131.315 101.599 131.075 100.889 130.836C100.193 130.581 99.4922 130.314 98.7964 130.052C97.4098 129.518 95.9787 129.039 94.6118 128.452C93.24 127.884 91.8633 127.312 90.4964 126.744C89.1393 126.165 87.8267 125.535 86.4993 124.94C85.843 124.639 85.1867 124.33 84.5353 124.032C83.8987 123.708 83.2622 123.395 82.6355 123.074C81.3771 122.433 80.1139 121.834 78.9197 121.188C76.556 119.863 74.212 118.65 72.1346 117.34C71.0835 116.703 70.0571 116.088 69.0652 115.482C68.1079 114.856 67.1802 114.245 66.2919 113.666C64.4908 112.515 62.9315 111.375 61.5399 110.378C60.854 109.883 60.1927 109.42 59.5956 108.987C59.0183 108.539 58.4853 108.129 58.0067 107.751C56.0871 106.255 54.9916 105.402 54.9916 105.402Z" fill="white"/>
<path fill-rule="evenodd" clip-rule="evenodd" d="M158.466 119.655C158.279 119.655 158.081 119.898 157.869 120.385L158.205 121.3C158.708 120.918 158.969 120.597 159.009 120.323C158.95 119.875 158.767 119.655 158.466 119.655ZM159.014 122.66C157.652 124.063 156.961 125.044 156.961 125.581V126.37C156.961 126.818 157.213 127.536 157.716 128.522C159.433 127.007 160.282 125.701 160.282 124.6C160.282 123.874 159.863 123.225 159.014 122.66ZM164.585 130.191C163.672 130.191 162.73 130.562 161.757 131.307C162.261 131.52 162.651 131.632 162.922 131.632H163.184C164.792 131.632 165.597 131.346 165.597 130.782C165.34 130.388 165 130.191 164.585 130.191ZM159.769 130.782C159.611 130.782 159.201 130.523 158.545 130.013C157.82 130.608 157.38 130.902 157.223 130.902L158.392 131.817C159.152 131.369 159.611 131.045 159.764 130.836L159.769 130.782ZM155.303 130.519C154.78 130.295 154.286 130.191 153.803 130.191H153.048C151.972 130.191 151.375 130.562 151.232 131.307C151.385 131.694 151.775 131.895 152.396 131.895C153.176 131.898 154.148 131.431 155.303 130.519ZM159.196 133.112L156.551 135.264L158.209 136.318H158.288C159.828 135.148 160.652 134.56 160.776 134.56L159.196 133.112ZM154.553 134.881C153.512 134.309 152.52 134.023 151.572 134.023H151.385C149.539 134.124 148.404 134.564 147.995 135.345L147.911 135.588H147.995L148.562 135.522C149.771 135.522 151.163 135.785 152.737 136.311L154.553 134.881ZM165.937 133.842C165.468 133.842 164.358 134.317 162.591 135.264V135.349L164.175 136.442C165.577 135.835 166.796 135.526 167.837 135.526L169.258 135.735V135.673C169.258 134.634 168.202 134.027 166.095 133.842H165.937ZM168.918 136.384C168.454 136.859 167.788 137.095 166.924 137.095L165.597 136.975C166.302 136.542 167.087 136.318 167.931 136.318L168.918 136.384ZM151.883 136.828C150.926 136.651 150.097 136.566 149.391 136.566L148.483 136.709V136.828C149.021 137.18 149.638 137.362 150.324 137.362C150.65 137.362 151.173 137.203 151.883 136.89V136.828ZM162.024 135.592L163.603 136.77C162.517 137.242 161.6 137.725 160.854 138.208L159.769 137.481L162.024 135.592ZM157.795 136.647L155.796 138.208L153.981 136.975C154.232 136.975 154.928 136.515 156.053 135.592L157.795 136.647ZM160.514 138.397L159.532 137.744H159.344C158.15 138.594 157.385 139.081 157.04 139.185V139.247L158.205 139.954L160.514 138.397ZM170.008 136.709H169.929C169.174 137.617 168.281 138.065 167.26 138.065C166.529 138.065 165.641 137.829 164.585 137.358C163.391 138.045 162.537 138.602 162.024 139.038C162.611 139.637 163.302 140.116 164.097 140.48C164.911 140.174 165.685 140.016 166.431 140.016H167.082C167.827 140.016 168.577 140.209 169.342 140.595H169.416C170.591 140.047 171.178 139.355 171.178 138.528C171.173 137.845 170.783 137.238 170.008 136.709ZM153.304 137.362C154.449 137.875 155.115 138.239 155.303 138.451C153.694 139.676 152.727 140.325 152.401 140.422C151.538 140.035 150.734 139.83 149.988 139.83C149.021 139.83 148.177 140.201 147.472 140.928C146.81 140.928 146.322 140.302 145.991 139.038C145.991 138.161 146.519 137.508 147.57 137.091C148.35 137.624 149.233 137.887 150.22 137.887H150.817C151.597 137.887 152.431 137.713 153.304 137.362ZM166.845 140.545C167.575 140.545 168.153 140.704 168.587 141.009L167.181 141.19L165.602 141.009V140.928C165.932 140.673 166.342 140.545 166.845 140.545ZM150.146 140.812C149.49 140.812 148.932 140.99 148.483 141.337L149.391 141.399L151.237 141.009C151.237 140.905 150.872 140.835 150.146 140.812ZM163.529 140.665C162.542 141.252 161.846 141.731 161.427 142.106L159.537 140.812L161.531 139.371C162.443 140.055 163.11 140.487 163.529 140.665ZM157.795 140.221L155.15 142.23L153.467 141.075V141.013C154.898 140.46 155.954 139.939 156.625 139.452L157.795 140.221ZM169.337 142.048L168.424 142.176C167.284 142.176 166.09 141.901 164.847 141.341C164.171 141.774 163.42 142.338 162.587 143.026C163.613 143.59 164.689 143.872 165.834 143.872C167.822 143.713 168.937 143.273 169.179 142.554L169.337 142.048ZM154.553 142.554C153.655 143.23 152.574 143.733 151.311 144.061H151.237C149.505 144.061 148.399 143.52 147.916 142.435L148.069 141.843L149.159 141.986C150.299 141.986 151.493 141.766 152.737 141.333L154.553 142.554ZM159.014 141.194L156.211 143.142C156.211 143.227 156.823 143.779 158.052 144.788L160.776 142.496C159.739 141.627 159.152 141.194 159.014 141.194ZM164.847 146.012C163.914 146.012 162.912 146.472 161.841 147.392C162.36 147.604 162.858 147.716 163.342 147.716H164.092C165.148 147.716 165.764 147.411 165.932 146.8V146.673C165.937 146.229 165.572 146.012 164.847 146.012ZM155.461 146.6C154.963 146.379 154.568 146.271 154.296 146.271H153.877C152.392 146.321 151.646 146.522 151.646 146.855V146.916C151.646 147.349 152.012 147.62 152.737 147.712C153.502 147.685 154.405 147.314 155.461 146.6ZM158.772 146.012L157.38 147.129C157.538 147.129 157.948 147.388 158.624 147.902L159.951 146.924L158.772 146.012ZM159.532 149.378C157.765 151.004 156.887 152.291 156.887 153.237C156.887 154.064 157.302 154.709 158.126 155.188C159.567 153.929 160.282 152.955 160.282 152.264V151.533C160.282 151.085 160.035 150.363 159.532 149.378ZM158.935 156.606C158.693 156.784 158.451 157.085 158.209 157.522C158.328 158.009 158.491 158.256 158.703 158.256C159.132 158.16 159.349 157.897 159.349 157.456C159.349 157.267 159.211 156.985 158.935 156.606ZM172.342 139.123C172.342 139.896 171.869 140.653 170.916 141.399L170.24 141.724L170.349 142.311C170.349 143.57 169.46 144.436 167.674 144.911L166.584 144.977C165.345 144.977 163.82 144.447 162.024 143.404L159.117 145.819L160.287 146.735C161.91 145.692 163.268 145.174 164.358 145.174H164.511C166.12 145.174 166.924 145.757 166.924 146.916C166.924 147.732 166.312 148.276 165.103 148.558C163.687 148.558 162.409 148.276 161.269 147.712L159.843 149.049C160.899 150.51 161.427 151.692 161.427 152.58C161.427 153.956 160.761 155.165 159.433 156.22C160.001 156.533 160.287 156.877 160.287 157.255V157.398C160.085 158.264 159.552 158.697 158.703 158.697C157.889 158.697 157.311 158.198 156.966 157.19C156.966 156.649 157.218 156.131 157.721 155.629C156.665 155.022 156.004 154.307 155.722 153.477L155.648 153.233V152.828C155.648 151.502 156.527 149.965 158.293 148.218H158.402C158.402 148.11 157.948 147.786 157.05 147.245C155.787 148.072 154.538 148.481 153.314 148.481C151.479 148.361 150.566 147.82 150.566 146.855V146.735C150.566 145.927 151.37 145.421 152.974 145.228C153.62 145.228 154.696 145.537 156.216 146.144L157.642 145.027L155.875 143.609C154.094 144.509 152.461 144.973 150.975 144.973C149.367 144.973 148.059 144.231 147.057 142.755L146.909 141.982V141.909L146.988 141.461C145.71 140.765 145.069 139.877 145.069 138.776C145.133 137.242 145.75 136.291 146.909 135.913L146.825 135.731C146.825 134.379 147.709 133.459 149.47 132.992L150.64 132.93C151.849 132.93 153.354 133.432 155.15 134.429C156.793 133.185 157.76 132.397 158.052 132.076L156.961 131.16C155.17 132.2 153.754 132.721 152.732 132.721C151.336 132.721 150.531 132.273 150.319 131.365L150.215 130.979C150.215 130.253 150.768 129.731 151.878 129.418L152.214 129.337C153.561 129.337 154.775 129.619 155.87 130.187L157.376 128.908C156.265 127.459 155.713 126.261 155.713 125.315C155.713 124.024 156.379 122.815 157.711 121.675C157.188 121.335 156.917 120.999 156.882 120.64V120.493C156.882 119.751 157.459 119.318 158.614 119.195C159.65 119.469 160.169 119.991 160.169 120.767C160.169 121.25 159.922 121.749 159.423 122.263V122.328C160.095 122.622 160.652 123.082 161.106 123.688C161.382 124.063 161.521 124.461 161.521 124.867V125.067C161.521 126.393 160.632 127.934 158.851 129.681V129.742C159.162 130.036 159.606 130.345 160.173 130.65C161.402 129.827 162.621 129.414 163.83 129.414C165.315 129.414 166.233 129.851 166.579 130.712L166.658 131.095V131.16C166.658 131.883 165.853 132.378 164.24 132.667C163.746 132.667 162.665 132.377 160.998 131.813H160.845C160.672 132.026 160.233 132.354 159.522 132.787L161.18 134.294C163.169 133.382 164.827 132.934 166.159 132.934C167.872 132.934 169.204 133.71 170.156 135.264L170.23 135.855V136.117C171.642 136.809 172.342 137.81 172.342 139.123Z" fill="white"/>
<path fill-rule="evenodd" clip-rule="evenodd" d="M43.415 103.203L43.3558 103.215C40.2124 103.875 37.5674 103.478 35.411 102.029C35.1494 101.808 34.8879 101.507 34.6412 101.136C34.3944 100.429 34.6658 99.4516 35.4455 98.2152C36.5213 96.9171 38.3619 95.9975 40.9773 95.4412L41.5546 95.3252C44.6388 94.68 47.19 94.9505 49.2181 96.1366C49.4747 96.3414 49.6277 96.5114 49.6721 96.6505L49.6918 96.6968C48.695 95.9087 45.9415 95.9936 41.4263 96.9402C39.2797 97.3884 37.4687 98.1457 36.0031 99.1966C35.3863 99.7839 35.1791 100.336 35.3567 100.87C35.5491 101.414 36.0278 101.824 36.8075 102.098C37.6365 102.338 38.6777 102.318 39.941 102.056C42.4576 101.526 45.0237 100.503 47.6489 98.9996C54.4538 95.4064 58.5051 93.4746 59.8029 93.208C61.2191 92.7289 62.6601 92.3348 64.1306 92.0257L64.5105 91.9523C66.9335 91.4462 69.5241 91.3689 72.2925 91.7359C73.1067 91.8093 74.2269 92.1802 75.6678 92.8564L75.8405 92.9877L75.8701 93.0843C74.5624 92.4121 72.3566 92.4082 69.2527 93.0534C64.5895 94.0348 59.0627 96.2448 52.6773 99.6796C48.8431 101.534 45.7589 102.713 43.415 103.203ZM47.0024 106.132C52.3861 105 58.4705 102.662 65.2507 99.1077C69.4403 96.8475 72.6231 95.4875 74.7894 95.0355C75.9885 94.7843 76.9606 94.7921 77.6959 95.0625C78.3868 95.2673 78.8161 95.4991 78.9838 95.7386L79.0727 95.7193C79.0184 95.5687 78.8506 95.3562 78.5693 95.0664C77.9525 94.483 76.7978 94.0734 75.1003 93.8416C72.8057 93.8107 71.0292 93.915 69.7906 94.1777C67.8513 94.5796 64.8017 95.8043 60.6369 97.8289C52.8549 101.735 47.0271 104.096 43.1534 104.911L43.0103 104.942C39.5956 105.66 36.7877 105.579 34.582 104.71C33.3927 104.204 32.3466 103.462 31.4485 102.461L31.33 102.488L31.7445 103.161C32.6624 104.331 34.0836 105.259 35.9933 105.931C39.2255 106.928 42.8968 106.997 47.0024 106.132Z" fill="white"/>
<path fill-rule="evenodd" clip-rule="evenodd" d="M265.133 100.398C258.748 96.9634 253.226 94.7534 248.553 93.7682C245.454 93.1229 243.248 93.1307 241.94 93.7991L241.975 93.7063L242.143 93.575C243.579 92.8989 244.704 92.5279 245.518 92.4507C248.277 92.0875 250.872 92.157 253.29 92.667L253.675 92.7482C255.151 93.0573 256.591 93.4514 258.003 93.9266C259.301 94.197 263.357 96.1289 270.167 99.722C272.782 101.229 275.353 102.249 277.875 102.774C279.133 103.037 280.174 103.056 281.003 102.821C281.783 102.546 282.266 102.137 282.454 101.592C282.636 101.059 282.419 100.499 281.807 99.9152C280.342 98.8604 278.531 98.1109 276.379 97.6589C271.869 96.7084 269.116 96.6311 268.119 97.4154L268.138 97.3729C268.183 97.2339 268.331 97.0639 268.592 96.8552C270.621 95.6691 273.172 95.3986 276.251 96.0439L276.833 96.1675C279.444 96.7161 281.294 97.6395 282.36 98.9377C283.145 100.174 283.411 101.148 283.169 101.859C282.918 102.226 282.666 102.523 282.4 102.747C280.243 104.196 277.593 104.594 274.455 103.933L274.396 103.922C272.057 103.431 268.968 102.257 265.133 100.398ZM252.56 99.8263C259.34 103.385 265.419 105.722 270.808 106.854C274.919 107.72 278.585 107.65 281.812 106.653C283.722 105.981 285.138 105.054 286.061 103.887L286.476 103.215L286.357 103.188C285.454 104.188 284.408 104.93 283.219 105.432C281.013 106.306 278.205 106.379 274.795 105.668L274.647 105.637C270.769 104.818 264.946 102.461 257.164 98.5552C252.999 96.5268 249.949 95.302 248.01 94.9041C246.771 94.6375 245.005 94.5254 242.7 94.5641C241.003 94.7998 239.843 95.2054 239.231 95.7889C238.95 96.0709 238.782 96.295 238.733 96.4418L238.817 96.4611C238.98 96.2216 239.409 95.9936 240.11 95.7811C240.845 95.5107 241.812 95.5068 243.016 95.7579C245.187 96.2061 248.37 97.57 252.56 99.8263Z" fill="white"/>
<path fill-rule="evenodd" clip-rule="evenodd" d="M27.8363 84.1207C28.1867 83.7845 28.4087 83.4948 28.5321 83.2861C28.6554 83.0775 28.7147 82.8534 28.7147 82.6293C28.7147 82.4052 28.6308 82.2275 28.4877 82.1C28.3446 81.9532 28.162 81.8914 27.9745 81.8914C27.8314 81.8914 27.708 81.9377 27.5846 82.0343C27.481 82.1309 27.4218 82.2584 27.4218 82.4207C27.4218 82.5984 27.5452 82.7723 27.8116 82.95C27.9547 83.0466 28.0189 83.1432 28.0189 83.2398C28.0189 83.3827 27.9153 83.5141 27.7129 83.6416C27.5057 83.7691 27.2195 83.8348 26.8543 83.8348C26.5039 83.8348 26.1585 83.8039 25.7637 83.7227C25.2505 83.6107 24.5548 83.402 23.7109 83.1277C23.3408 83.4793 22.9757 83.7691 22.5809 83.9777C22.1911 84.1864 21.6384 84.3795 20.9623 84.5418V87.4666L23.178 88.3823L21.8654 89.7307L20.9623 90.6309C20.7798 90.8086 20.6367 90.9207 20.5528 90.9825C20.4097 91.0945 20.3258 91.1757 20.3258 91.2375C20.3258 91.2877 20.3653 91.3495 20.4245 91.4152C20.5084 91.4654 20.5873 91.4964 20.6515 91.4964C20.7354 91.4964 20.8587 91.45 21.0413 91.3341C21.5348 91.0289 22.0874 90.8859 22.724 90.8859C23.1336 90.8859 23.5234 90.9361 23.8935 91.0134C24.2439 91.11 24.6732 91.2684 25.1864 91.4964C25.7588 91.0791 26.277 90.7893 26.726 90.6116C27.18 90.4339 27.6883 90.3373 28.2459 90.2909V86.9836L25.9266 86.0525L27.8363 84.1207ZM23.0201 84.3602C23.7998 84.7929 24.5794 85.0016 25.3986 85.0016C25.7292 85.0016 26.1141 84.9552 26.5484 84.8586L24.3771 87.1227L23.025 86.5625V84.3602H23.0201ZM26.1931 87.9109V90.1905C25.3739 89.7886 24.5745 89.5954 23.8146 89.5954C23.6122 89.5954 23.3853 89.6109 23.1385 89.6418C22.8721 89.6882 22.6056 89.7384 22.3194 89.8195L24.7373 87.3004L26.1931 87.9109Z" fill="white"/>
<path fill-rule="evenodd" clip-rule="evenodd" d="M32.1492 82.1309H32.5785L33.9553 80.4464H32.6821L32.1492 82.1309ZM30.1161 84.2636L30.876 84.8741V89.2555C30.876 89.9161 30.955 90.3798 31.0981 90.6386C31.2659 90.913 31.5916 91.1834 32.1442 91.4886L34.2809 90.1093L34.0539 89.8659C33.7875 90.0436 33.6 90.1557 33.521 90.1866C33.4618 90.2175 33.3976 90.233 33.3138 90.233C33.2348 90.233 33.1312 90.1673 33.0275 90.0243C32.9288 89.8968 32.8844 89.5916 32.8844 89.1434V84.8702L33.6839 84.2598L31.8975 83.12L30.1161 84.2636Z" fill="white"/>
<path fill-rule="evenodd" clip-rule="evenodd" d="M38.9491 85.0518V84.762C38.9491 84.4104 38.8652 84.1361 38.7221 83.943C38.579 83.7343 38.2089 83.46 37.6365 83.1239L35.5047 84.5032L35.7515 84.7427C35.9933 84.5341 36.2005 84.4375 36.3436 84.4375C36.467 84.4375 36.5706 84.5032 36.6742 84.6461C36.8173 84.8393 36.9012 85.2257 36.9012 85.7859V89.8002L36.1413 90.3604L37.9227 91.4848L39.709 90.3604L38.9491 89.8002V85.4343L40.6516 84.3602L41.5349 85.0982V89.4023C41.5349 89.9625 41.6187 90.3643 41.7619 90.6232C41.9247 90.8782 42.2751 91.168 42.8475 91.4886L44.9842 90.1093L44.7572 89.8659C44.4068 90.0745 44.1798 90.1711 44.0811 90.1711C43.9775 90.1711 43.8739 90.1248 43.7949 90.0127C43.6518 89.835 43.5926 89.58 43.5926 89.24V85.4807C43.5926 85.0789 43.6518 84.7582 43.7949 84.5341C43.8986 84.3564 44.165 84.1014 44.6388 83.7614L44.3723 83.5527L43.3903 84.2907L42.0185 83.12L38.9491 85.0518Z" fill="white"/>
<path fill-rule="evenodd" clip-rule="evenodd" d="M47.0024 84.4877V88.9502C47.0024 89.3829 46.9432 89.7036 46.8396 89.9123C46.7804 90.0552 46.6126 90.1866 46.3905 90.3141V90.5073C47.0469 90.6193 47.5995 90.7314 48.0486 90.8589C48.5223 91.0057 49.0553 91.2143 49.7116 91.4848L52.1739 90.0552L52.0703 89.7191L51.0044 90.3141L49.0553 89.6225V84.6114L51.0242 85.4768L52.0703 84.2714L49.4846 83.1161C48.6654 83.7343 47.8463 84.2018 47.0024 84.4877Z" fill="white"/>
<path fill-rule="evenodd" clip-rule="evenodd" d="M55.268 83.9584C54.8584 84.1014 54.3452 84.2636 53.7086 84.4414V88.9386C53.7086 89.437 53.6642 89.7732 53.5853 89.9355C53.526 90.0784 53.3583 90.2098 53.1362 90.3218V90.515C53.9159 90.6618 54.5327 90.7893 54.962 90.9014C55.3913 91.0289 55.9243 91.222 56.6003 91.4964L59.8424 89.7307L59.5956 89.4911L58.0363 90.3257L55.717 89.6032V88.1736L60.2075 85.7164L57.38 83.1316C56.2746 83.5759 55.5788 83.8464 55.268 83.9584ZM58.3669 86.1916L55.722 87.6366V84.0859L55.8651 84.0241L58.3669 86.1916Z" fill="white"/>
<path fill-rule="evenodd" clip-rule="evenodd" d="M258.289 85.0827C258.348 85.0364 258.437 84.99 258.541 84.9205C258.718 84.8045 258.847 84.7466 258.935 84.7466C259.024 84.7466 259.113 84.7814 259.231 84.8509C259.38 84.9552 259.498 85.1059 259.572 85.2798C259.616 85.3918 259.646 85.5889 259.646 85.8786V90.0977L259.162 90.5923L260.914 91.4886L262.814 90.2793L262.577 90.0823L261.797 90.5884C261.516 90.4261 261.339 90.287 261.24 90.1711C261.181 90.1132 261.151 90.0089 261.151 89.8852V85.1716C261.151 84.8045 261.047 84.4916 260.845 84.2598C260.638 84.0202 260.317 83.8348 259.888 83.6957L258.082 84.8818L258.289 85.0827Z" fill="white"/>
<path fill-rule="evenodd" clip-rule="evenodd" d="M267.828 91.4886C268.518 91.0868 269.135 90.6464 269.663 90.1866C270.196 89.7268 270.576 89.2902 270.813 88.8846C271.124 88.3437 271.272 87.7564 271.272 87.1189C271.272 86.2882 270.981 85.5618 270.374 84.9668C269.787 84.368 268.933 83.943 267.828 83.6996C266.781 84.1477 265.943 84.6809 265.311 85.2914C264.798 85.7975 264.546 86.3268 264.546 86.8677C264.546 87.2116 264.65 87.5246 264.837 87.8027C265.03 88.0809 265.276 88.3205 265.572 88.5059C265.75 88.6218 266.086 88.7686 266.589 88.9657L269.871 87.2386C269.9 87.4241 269.915 87.5709 269.915 87.6868C269.915 88.193 269.811 88.7261 269.594 89.2786C269.446 89.6496 269.18 90.0398 268.815 90.4764L266.15 89.5221L265.133 90.5111L267.828 91.4886ZM267.946 87.9418C267.418 87.7911 267.018 87.6521 266.767 87.5168C266.446 87.3314 266.194 87.115 266.017 86.8484C265.854 86.5934 265.765 86.3307 265.765 86.0641C265.765 85.8439 265.824 85.6275 265.943 85.4073C266.061 85.1871 266.249 84.9707 266.485 84.7505C268.326 85.0364 269.431 85.7859 269.797 86.9605L267.946 87.9418Z" fill="white"/>
<path fill-rule="evenodd" clip-rule="evenodd" d="M272.17 85.925H272.54C272.792 85.5348 273.088 85.2682 273.394 85.1214C273.705 84.9707 274.144 84.8896 274.731 84.8896H277.583C276.611 85.7898 276.024 86.3423 275.817 86.5625C275.259 87.173 274.815 87.7371 274.494 88.2548C274.07 88.9348 273.744 89.6148 273.522 90.2948C273.404 90.685 273.33 91.0791 273.33 91.4925L275.348 90.9632C275.392 90.0089 275.57 89.0855 275.911 88.22C276.231 87.3468 276.705 86.5277 277.292 85.7666C277.677 85.2837 278.22 84.7273 278.911 84.1052V83.8077H273.512L272.17 85.925Z" fill="white"/>
<path fill-rule="evenodd" clip-rule="evenodd" d="M284.665 87.9998V85.0634C284.665 84.65 284.546 84.3371 284.324 84.1053C284.087 83.8773 283.811 83.7382 283.47 83.7034L279.439 87.9225L279.745 89.0043H283.16V90.1596L282.72 90.6425L284.428 91.4925L286.15 90.3643L285.943 90.1673L285.691 90.3296C285.602 90.3875 285.513 90.4223 285.425 90.4223C285.365 90.4223 285.262 90.3991 285.099 90.3412L284.66 90.1673V89.0043H286.426L286.15 88.0037H284.665V87.9998ZM279.779 87.9998L282.755 84.878C282.903 84.9359 283.002 85.0287 283.061 85.1407C283.135 85.2566 283.164 85.4305 283.164 85.6468V87.9959H279.779V87.9998Z" fill="white"/>
</g>
<defs>
<clipPath id="clip0_2_15">
<rect width="302" height="306" fill="white" transform="translate(0 -76)"/>
</clipPath>
</defs>
</svg>
