<svg width="66" height="66" viewBox="0 0 66 66" fill="none" xmlns="http://www.w3.org/2000/svg">
<mask id="mask0_2_181" style="mask-type:alpha" maskUnits="userSpaceOnUse" x="0" y="0" width="66" height="66">
<rect width="66" height="66" fill="#D9D9D9"/>
</mask>
<g mask="url(#mask0_2_181)">
<path d="M15.5375 26.1624L20.9 28.4288C21.5417 27.1468 22.2063 25.9105 22.8938 24.7201C23.5813 23.5296 24.3375 22.3392 25.1625 21.1487L21.3125 20.3932L15.5375 26.1624ZM25.3 31.8628L33.1375 39.6236C35.0625 38.8911 37.125 37.7693 39.325 36.2583C41.525 34.7474 43.5875 33.0304 45.5125 31.1073C48.7208 27.9023 51.2302 24.3423 53.0406 20.4276C54.8511 16.5128 55.6417 12.9071 55.4125 9.61049C52.1125 9.38156 48.4917 10.1714 44.55 11.98C40.6083 13.7885 37.0333 16.2953 33.825 19.5004C31.9 21.4234 30.1813 23.4838 28.6688 25.6816C27.1563 27.8794 26.0333 29.9398 25.3 31.8628ZM37.5375 27.3986C36.4833 26.3455 35.9563 25.052 35.9563 23.5182C35.9563 21.9843 36.4833 20.6909 37.5375 19.6378C38.5917 18.5847 39.8979 18.0581 41.4563 18.0581C43.0146 18.0581 44.3208 18.5847 45.375 19.6378C46.4292 20.6909 46.9563 21.9843 46.9563 23.5182C46.9563 25.052 46.4292 26.3455 45.375 27.3986C44.3208 28.4517 43.0146 28.9782 41.4563 28.9782C39.8979 28.9782 38.5917 28.4517 37.5375 27.3986ZM38.8438 49.4449L44.6188 43.6758L43.8625 39.8297C42.6708 40.6538 41.4792 41.3979 40.2875 42.0618C39.0958 42.7257 37.8583 43.3781 36.575 44.0192L38.8438 49.4449ZM60.3625 4.59686C61.2333 10.137 60.6948 15.5284 58.7469 20.771C56.799 26.0136 53.4417 31.0157 48.675 35.7776L50.05 42.5769C50.2333 43.4926 50.1875 44.3855 49.9125 45.2554C49.6375 46.1253 49.1792 46.8808 48.5375 47.5218L36.9875 59.0601L31.2125 45.5301L19.4563 33.7858L5.91251 28.0167L17.3938 16.4785C18.0354 15.8375 18.8031 15.3796 19.6969 15.1049C20.5906 14.8302 21.4958 14.7844 22.4125 14.9675L29.2188 16.3411C33.9854 11.5793 38.9813 8.214 44.2063 6.24517C49.4313 4.27635 54.8167 3.72691 60.3625 4.59686ZM10.7938 42.5082C12.3979 40.9057 14.3573 40.093 16.6719 40.0701C18.9865 40.0472 20.9458 40.837 22.55 42.4395C24.1542 44.0421 24.9448 45.9994 24.9219 48.3117C24.899 50.6239 24.0854 52.5813 22.4813 54.1838C21.3354 55.3285 19.4219 56.3129 16.7406 57.137C14.0594 57.9612 10.3583 58.6938 5.63751 59.3348C6.27918 54.6188 7.01251 50.9215 7.83751 48.243C8.66251 45.5645 9.64793 43.6529 10.7938 42.5082ZM14.7125 46.3543C14.2542 46.8121 13.7958 47.6478 13.3375 48.8611C12.8792 50.0744 12.5583 51.2992 12.375 52.5355C13.6125 52.3523 14.8386 52.0433 16.0531 51.6083C17.2677 51.1733 18.1042 50.7269 18.5625 50.269C19.1125 49.7196 19.4104 49.0557 19.4563 48.2773C19.5021 47.4989 19.25 46.835 18.7 46.2856C18.15 45.7362 17.4854 45.4729 16.7063 45.4958C15.9271 45.5187 15.2625 45.8048 14.7125 46.3543Z" fill="white"/>
</g>
</svg>
