<svg width="66" height="66" viewBox="0 0 66 66" fill="none" xmlns="http://www.w3.org/2000/svg">
<mask id="mask0_2_166" style="mask-type:alpha" maskUnits="userSpaceOnUse" x="0" y="0" width="66" height="66">
<rect width="66" height="66" fill="#D9D9D9"/>
</mask>
<g mask="url(#mask0_2_166)">
<path d="M41.25 53.7002C35.1083 53.7002 29.9062 51.5711 25.6437 47.3129C21.3812 43.0548 19.25 37.858 19.25 31.7226C19.25 25.633 21.3812 20.4476 25.6437 16.1666C29.9062 11.8855 35.1083 9.745 41.25 9.745C47.3458 9.745 52.5365 11.8855 56.8219 16.1666C61.1073 20.4476 63.25 25.633 63.25 31.7226C63.25 37.858 61.1073 43.0548 56.8219 47.3129C52.5365 51.5711 47.3458 53.7002 41.25 53.7002ZM41.25 48.2058C45.8333 48.2058 49.7292 46.6032 52.9375 43.3982C56.1458 40.1931 57.75 36.3012 57.75 31.7226C57.75 27.1439 56.1458 23.2521 52.9375 20.047C49.7292 16.8419 45.8333 15.2394 41.25 15.2394C36.6667 15.2394 32.7708 16.8419 29.5625 20.047C26.3542 23.2521 24.75 27.1439 24.75 31.7226C24.75 36.3012 26.3542 40.1931 29.5625 43.3982C32.7708 46.6032 36.6667 48.2058 41.25 48.2058ZM47.5062 41.9559L51.425 38.0411L44 30.6237V20.7338H38.5V32.8901L47.5062 41.9559ZM5.5 23.481V17.9866H16.5V23.481H5.5ZM2.75 34.4698V28.9754H16.5V34.4698H2.75ZM5.5 45.4586V39.9642H16.5V45.4586H5.5Z" fill="white"/>
</g>
</svg>
